<svg xmlns:xlink="http://www.w3.org/1999/xlink" version="1.1" viewBox="49.5875 50.8 412 385" xmlns="http://www.w3.org/2000/svg" id="freepik_stories-chat" class="animated" style="max-height: 500px" width="412" height="385"><style>svg#freepik_stories-chat:not(.animated) .animable {opacity: 0;}svg#freepik_stories-chat.animated #freepik--speech-bubbles--inject-1 {animation: 1.5s Infinite  linear wind;animation-delay: 0s;}            @keyframes wind {                0% {                    transform: rotate( 0deg );                }                25% {                    transform: rotate( 1deg );                }                75% {                    transform: rotate( -1deg );                }            }        </style><g style="transform-origin: 245.799px 182.383px;" class="animable" id="freepik--background-simple--inject-1"><path class="animable" id="eldizje00l29o" style="fill: rgb(109, 40, 217); transform-origin: 245.799px 182.383px;" d="M99.41,262.43c49.84,92,115.92-37.3,171.33-37.88,46.3-.48,39.66,59.58,98.55,25.52,26.79-15.5,40.15-67.59,35-94.19C370-22.09,14,104.88,99.41,262.43Z"/><g id="elekirt16tmx"><path class="animable" style="fill: rgb(255, 255, 255); opacity: 0.9; transform-origin: 245.799px 182.383px;" d="M99.41,262.43c49.84,92,115.92-37.3,171.33-37.88,46.3-.48,39.66,59.58,98.55,25.52,26.79-15.5,40.15-67.59,35-94.19C370-22.09,14,104.88,99.41,262.43Z"/></g></g><g style="transform-origin: 250px 416.24px;" class="animable" id="freepik--Shadow--inject-1"><ellipse class="animable" id="elhdm2ruq04xh" style="fill: rgb(245, 245, 245); transform-origin: 250px 416.24px;" ry="11.32" rx="193.89" cy="416.24" cx="250"/></g><g style="transform-origin: 347.201px 269.985px;" class="animable" id="freepik--Character--inject-1"><path class="animable" id="elkn9154p9ten" style="fill: rgb(229, 138, 123); transform-origin: 347.595px 218.67px;" d="M366.66,195.39c-.16,2.81-.5,5.39-.88,8.07s-.93,5.28-1.51,7.9A75.69,75.69,0,0,1,359,226.87a13.13,13.13,0,0,1-3.3,4.06,28.27,28.27,0,0,1-3.56,2.58,56.72,56.72,0,0,1-7.29,3.77,103.45,103.45,0,0,1-15.08,5.13l-1.24-3.71c2.3-1,4.66-2.11,6.94-3.24s4.56-2.27,6.74-3.51a60,60,0,0,0,6.23-3.93,23.14,23.14,0,0,0,2.6-2.17,6.89,6.89,0,0,0,1.51-2A63.28,63.28,0,0,0,354.9,217c.64-2.39,1.23-4.8,1.73-7.25s.9-4.93,1.26-7.42.65-5,.87-7.4Z"/><path class="animable" id="elo424inokstb" style="fill: rgb(109, 40, 217); transform-origin: 363.465px 195.692px;" d="M361.27,186c-3.19.81-5.42,13.94-5.42,13.94l8.79,6s8.43-13.24,6-16.74C368.06,185.47,365.93,184.77,361.27,186Z"/><g id="el5lrpk10tn7p"><path class="animable" style="opacity: 0.5; transform-origin: 363.465px 195.692px;" d="M361.27,186c-3.19.81-5.42,13.94-5.42,13.94l8.79,6s8.43-13.24,6-16.74C368.06,185.47,365.93,184.77,361.27,186Z"/></g><polygon class="animable" id="elem059bio0dh" style="fill: rgb(109, 40, 217); transform-origin: 361.58px 197.18px;" points="361.56 188.89 359.11 202.12 364.05 205.47 361.56 188.89"/><g id="elkk8ulor8t7o"><polygon class="animable" style="opacity: 0.7; transform-origin: 361.58px 197.18px;" points="361.56 188.89 359.11 202.12 364.05 205.47 361.56 188.89"/></g><path class="animable" id="elxkdf4tzj68i" style="fill: rgb(229, 138, 123); transform-origin: 327.63px 237.725px;" d="M330.34,238.5l-5.49-5.56-.72,7.84s4.11,2.78,7,1.29Z"/><polygon class="animable" id="el9bj7phvubsl" style="fill: rgb(229, 138, 123); transform-origin: 321.495px 236.445px;" points="318.39 232.11 318.14 238.7 324.13 240.78 324.85 232.94 318.39 232.11"/><polygon class="animable" id="elyn81des9qo" style="fill: rgb(229, 138, 123); transform-origin: 374.4px 397.92px;" points="378.53 406.88 370.79 406.88 370.27 388.96 378.01 388.96 378.53 406.88"/><polygon class="animable" id="el62dgbsd78br" style="fill: rgb(229, 138, 123); transform-origin: 437.12px 367.42px;" points="446.82 370.94 440.92 375.95 427.42 363.9 433.32 358.89 446.82 370.94"/><path class="animable" id="el4d2bqk3wkht" style="fill: rgb(38, 50, 56); transform-origin: 444.251px 378.583px;" d="M439.31,375.35,445,368.8a.6.6,0,0,1,.8-.12l5.83,3.78a1.24,1.24,0,0,1,.22,1.84c-2,2.25-3.13,3.23-5.64,6.11-1.55,1.77-3.63,4.52-5.76,7s-4.67.46-4-.75c3-5.42,2.28-7.33,2.33-10A2,2,0,0,1,439.31,375.35Z"/><path class="animable" id="elvqgpxtobis" style="fill: rgb(38, 50, 56); transform-origin: 369.4px 410.4px;" d="M370.52,406h8.7a.62.62,0,0,1,.62.53l1,6.88a1.24,1.24,0,0,1-1.24,1.37c-3,0-4.5-.23-8.32-.23-2.35,0-7.22.25-10.46.25s-3.43-3.22-2.07-3.51c6.06-1.3,8.45-3.1,10.49-4.82A2.07,2.07,0,0,1,370.52,406Z"/><polygon class="animable" id="elny9euwjwxdo" style="fill: rgb(207, 111, 100); transform-origin: 374.275px 393.59px;" points="370.27 388.97 370.54 398.21 378.28 398.21 378.02 388.97 370.27 388.97"/><polygon class="animable" id="elqpt2w6k50nc" style="fill: rgb(207, 111, 100); transform-origin: 433.86px 364.5px;" points="433.33 358.89 427.43 363.9 434.39 370.11 440.29 365.1 433.33 358.89"/><path class="animable" id="el1o5zywcbt" style="fill: rgb(109, 40, 217); transform-origin: 381.161px 208.225px;" d="M361.27,186s-3.68,1.3,3.7,46.71H396.4c-.53-12.79-.54-20.68,5.57-46.94A92.33,92.33,0,0,0,388.63,184a98.53,98.53,0,0,0-14.28,0C368.22,184.54,361.27,186,361.27,186Z"/><g id="el6kl0qnwl1cc"><path class="animable" style="opacity: 0.5; transform-origin: 381.161px 208.225px;" d="M361.27,186s-3.68,1.3,3.7,46.71H396.4c-.53-12.79-.54-20.68,5.57-46.94A92.33,92.33,0,0,0,388.63,184a98.53,98.53,0,0,0-14.28,0C368.22,184.54,361.27,186,361.27,186Z"/></g><path class="animable" id="eladnoo5x0ljw" style="fill: rgb(109, 40, 217); transform-origin: 385.665px 188.39px;" d="M379,187.26l2.84,5.8s11.91-3.64,10.35-8.88l-4-.46Z"/><g id="eljxo5mg06ggg"><path class="animable" style="fill: rgb(250, 250, 250); opacity: 0.6; transform-origin: 385.665px 188.39px;" d="M379,187.26l2.84,5.8s11.91-3.64,10.35-8.88l-4-.46Z"/></g><path class="animable" id="elv102kmbpty" style="fill: rgb(109, 40, 217); transform-origin: 374.436px 188.18px;" d="M378.78,186.72l-4,5.92s-8.48-3.68-2.63-8.63l2.49-.29Z"/><g id="elkjyxl6ecacr"><path class="animable" style="fill: rgb(250, 250, 250); opacity: 0.6; transform-origin: 374.436px 188.18px;" d="M378.78,186.72l-4,5.92s-8.48-3.68-2.63-8.63l2.49-.29Z"/></g><path class="animable" id="eln8lzhchlngm" style="fill: rgb(38, 50, 56); transform-origin: 407.891px 136.522px;" d="M391.55,144c3.67-3.53.15-20.12,9.81-14.63,12.28,7,20.21-2.16,16.11-5.64,8.62.61,7.78,10.42,4.19,15.69-9.11,13.41-27.49.66-27.6,7.47S391.55,144,391.55,144Z"/><path class="animable" id="elrmwpod7xihl" style="fill: rgb(109, 40, 217); transform-origin: 392.309px 147.394px;" d="M386.25,141.61c4.21-3.33,18.59-.56,8.73,12.85Z"/><g id="els8mwz8apb8"><path class="animable" style="opacity: 0.3; transform-origin: 392.309px 147.394px;" d="M386.25,141.61c4.21-3.33,18.59-.56,8.73,12.85Z"/></g><path class="animable" id="elt861qimjmfh" style="fill: rgb(38, 50, 56); transform-origin: 389.943px 160.26px;" d="M388.47,147.84c12.26,1.83,13.12,21.75-5.91,24.84Z"/><path class="animable" id="elprsl4ccksj" style="fill: rgb(229, 138, 123); transform-origin: 380.853px 178.27px;" d="M387.21,167.91c-.9,4.59-1.8,13,1.42,16.07,0,0-1.26,4.65-9.79,4.65-9.38,0-4.49-4.65-4.49-4.65,5.12-1.23,5-5,4.1-8.59Z"/><path class="animable" id="elee7y4e7qqpm" style="fill: rgb(207, 111, 100); transform-origin: 381.133px 174.48px;" d="M383.64,171l-5.19,4.42a13.39,13.39,0,0,1,.44,2.54c2-.29,4.65-2.44,4.86-4.48A6.84,6.84,0,0,0,383.64,171Z"/><path class="animable" id="el03uzlv6x0gxx" style="fill: rgb(38, 50, 56); transform-origin: 369.034px 152.16px;" d="M367.86,162.59c-4.23-5.45-9.74-19.51,6.75-20.86Z"/><path class="animable" id="elywb1wj4gvnh" style="fill: rgb(229, 138, 123); transform-origin: 376.712px 161.779px;" d="M386.9,156.19c1,7.62,1.6,10.82-1.44,15.42-4.57,6.93-14.15,6.52-17.41-.64-2.95-6.44-4.11-17.81,2.66-22.25A10.48,10.48,0,0,1,386.9,156.19Z"/><path class="animable" id="el039rdiml8hj8" style="fill: rgb(109, 40, 217); transform-origin: 373.695px 314.545px;" d="M365,232.67s-6.1,59.61-5.6,83.21c.53,24.55,9.53,80.54,9.53,80.54h10.46s-1.66-54.56-.73-78.66c1-26.29,9.36-85.09,9.36-85.09Z"/><g id="el4k4mvpy2oxm"><path class="animable" style="fill: rgb(250, 250, 250); opacity: 0.6; transform-origin: 373.695px 314.545px;" d="M365,232.67s-6.1,59.61-5.6,83.21c.53,24.55,9.53,80.54,9.53,80.54h10.46s-1.66-54.56-.73-78.66c1-26.29,9.36-85.09,9.36-85.09Z"/></g><polygon class="animable" id="elnl9hwcifpog" style="fill: rgb(109, 40, 217); transform-origin: 373.965px 394.595px;" points="380.27 396.79 367.99 396.79 367.09 392.88 380.84 392.4 380.27 396.79"/><g id="ell52conlzms"><polygon class="animable" style="fill: rgb(250, 250, 250); opacity: 0.4; transform-origin: 373.965px 394.595px;" points="380.27 396.79 367.99 396.79 367.09 392.88 380.84 392.4 380.27 396.79"/></g><path class="animable" id="el45fkv4g3spv" style="fill: rgb(109, 40, 217); transform-origin: 380.047px 272.856px;" d="M378.53,247.5c-7.72,15.53-1.55,43.86,1.18,54.4,1.4-15.83,3.76-35.18,5.6-49.39C384.14,244.47,382.09,240.34,378.53,247.5Z"/><g id="elpge8rqr1amq"><path class="animable" style="fill: rgb(250, 250, 250); opacity: 0.4; transform-origin: 380.047px 272.856px;" d="M378.53,247.5c-7.72,15.53-1.55,43.86,1.18,54.4,1.4-15.83,3.76-35.18,5.6-49.39C384.14,244.47,382.09,240.34,378.53,247.5Z"/></g><path class="animable" id="elwasgjlcqkae" style="fill: rgb(109, 40, 217); transform-origin: 406.545px 301.305px;" d="M373.27,232.67s7.12,62,12.5,81.87c6.38,23.63,46,55.42,46,55.42l8.05-6.84s-28.74-34.53-33.62-47c-10.42-26.56-1.5-66.14-9.83-83.47Z"/><g id="elxd02vxs75b9"><path class="animable" style="fill: rgb(250, 250, 250); opacity: 0.6; transform-origin: 406.545px 301.305px;" d="M373.27,232.67s7.12,62,12.5,81.87c6.38,23.63,46,55.42,46,55.42l8.05-6.84s-28.74-34.53-33.62-47c-10.42-26.56-1.5-66.14-9.83-83.47Z"/></g><polygon class="animable" id="elqip8gcl9mb" style="fill: rgb(109, 40, 217); transform-origin: 434.28px 364.865px;" points="441.13 362.76 431.15 371.23 427.43 369 438.71 358.5 441.13 362.76"/><g id="el5b880jdsw9o"><polygon class="animable" style="fill: rgb(250, 250, 250); opacity: 0.4; transform-origin: 434.28px 364.865px;" points="441.13 362.76 431.15 371.23 427.43 369 438.71 358.5 441.13 362.76"/></g><path class="animable" id="el8224wvbnroa" style="fill: rgb(38, 50, 56); transform-origin: 375.175px 160.665px;" d="M375.9,160.54c.12.61-.11,1.17-.51,1.25s-.82-.36-.94-1,.11-1.17.51-1.25S375.78,159.92,375.9,160.54Z"/><path class="animable" id="elrn7a313ejc" style="fill: rgb(38, 50, 56); transform-origin: 368.275px 162.025px;" d="M369,161.9c.12.61-.11,1.17-.51,1.25s-.82-.36-.94-1,.1-1.17.5-1.25S368.86,161.28,369,161.9Z"/><path class="animable" id="eln7s1juduun" style="fill: rgb(38, 50, 56); transform-origin: 367.44px 161.035px;" d="M368.22,160.93l-1.56-.14S367.64,161.79,368.22,160.93Z"/><path class="animable" id="elo5dw5wnowv" style="fill: rgb(223, 87, 83); transform-origin: 370.72px 164.884px;" d="M371,162.59a16.79,16.79,0,0,1-1.41,4.34,2.7,2.7,0,0,0,2.26,0Z"/><path class="animable" id="el4wkqxvvr0vn" style="fill: rgb(38, 50, 56); transform-origin: 376.337px 167.323px;" d="M374.46,168.9a.18.18,0,0,1,0-.36,4.94,4.94,0,0,0,3.58-2.68.18.18,0,1,1,.34.14,5.23,5.23,0,0,1-3.85,2.9Z"/><path class="animable" id="elnwdz2uus4y" style="fill: rgb(38, 50, 56); transform-origin: 380.577px 150.695px;" d="M368,151.42s6.51,9.87,18.51,11.17c0,0,12.39-11.25,4.77-19.05C378.94,130.92,364.22,147,368,151.42Z"/><path class="animable" id="elisdpansxe5" style="fill: rgb(229, 138, 123); transform-origin: 386.882px 162.953px;" d="M389.51,162.08a5.54,5.54,0,0,1-1.74,3.91c-1.44,1.35-3.06.28-3.42-1.55-.32-1.65,0-4.33,1.85-5A2.52,2.52,0,0,1,389.51,162.08Z"/><path class="animable" id="elh1u9j9968qq" style="fill: rgb(38, 50, 56); transform-origin: 376.027px 157.088px;" d="M377.48,157.9a.38.38,0,0,1-.25-.09,2.93,2.93,0,0,0-2.54-.75.36.36,0,0,1-.45-.26.37.37,0,0,1,.26-.45,3.64,3.64,0,0,1,3.22.91.37.37,0,0,1,0,.52A.36.36,0,0,1,377.48,157.9Z"/><path class="animable" id="eljn5b5fk77t8" style="fill: rgb(38, 50, 56); transform-origin: 366.254px 157.985px;" d="M365.14,159.33a.32.32,0,0,1-.14,0,.36.36,0,0,1-.2-.48,3.63,3.63,0,0,1,2.51-2.21.35.35,0,0,1,.42.29.36.36,0,0,1-.29.43h0a2.93,2.93,0,0,0-2,1.77A.36.36,0,0,1,365.14,159.33Z"/><path class="animable" id="elchr6ybbb3we" style="fill: rgb(229, 138, 123); transform-origin: 401.345px 211.831px;" d="M413,224.33l0-.89c0-1.2-.17-2.35-.29-3.51a86.84,86.84,0,0,0-2.86-13.27A119.87,119.87,0,0,0,405.37,194L398,197c1.49,3.86,2.9,7.93,4.19,11.93.62,2,1.21,4,1.72,6s1,4,1.35,6l.21,1.33c-.69-.23-1.4-.48-2.12-.78-3.78-1.54-7.64-3.54-11.45-5.46l-2.21,3.23a72.8,72.8,0,0,0,10.92,7.84,27.76,27.76,0,0,0,3.23,1.6,13.85,13.85,0,0,0,1.92.67,8.86,8.86,0,0,0,1.19.25,6.36,6.36,0,0,0,1.61,0,4.84,4.84,0,0,0,2.44-.92,4.7,4.7,0,0,0,1.77-2.69A6.27,6.27,0,0,0,413,224.33Zm-5.38-1.49.18,0C407.91,222.83,407.77,222.85,407.57,222.84Z"/><path class="animable" id="el3935i4pqx6" style="fill: rgb(109, 40, 217); transform-origin: 401.136px 195.914px;" d="M402,185.73c3.15,1,6.93,11.8,6.93,11.8l-12.21,8.74s-4.46-9.05-3.13-13.12C394.93,188.91,398.38,184.64,402,185.73Z"/><g id="elkwccoxs7l8g"><path class="animable" style="opacity: 0.5; transform-origin: 401.136px 195.914px;" d="M402,185.73c3.15,1,6.93,11.8,6.93,11.8l-12.21,8.74s-4.46-9.05-3.13-13.12C394.93,188.91,398.38,184.64,402,185.73Z"/></g><path class="animable" id="eldjnxcz1dj5s" style="fill: rgb(109, 40, 217); transform-origin: 437.964px 377.661px;" d="M437.19,379.08a1.07,1.07,0,0,1-.82-.42.61.61,0,0,1-.14-.61c.28-.95,3-1.72,3.27-1.8a.19.19,0,0,1,.2.06.2.2,0,0,1,0,.2c-.48.91-1.44,2.45-2.41,2.57Zm2-2.35c-1.07.34-2.45.93-2.6,1.43a.24.24,0,0,0,.07.26.68.68,0,0,0,.62.29C437.79,378.65,438.49,377.92,439.18,376.73Z"/><path class="animable" id="el6ybtd4932dn" style="fill: rgb(109, 40, 217); transform-origin: 437.831px 375.839px;" d="M438.33,376.76a3.16,3.16,0,0,1-2.24-.63.63.63,0,0,1,0-.8,1,1,0,0,1,.69-.42c1.1-.13,2.8,1.31,2.87,1.38a.16.16,0,0,1,.06.17.17.17,0,0,1-.12.14A4.35,4.35,0,0,1,438.33,376.76Zm-1.36-1.5h-.12a.61.61,0,0,0-.44.27c-.13.19-.08.3,0,.37.33.43,1.85.59,2.78.43A4.7,4.7,0,0,0,437,375.26Z"/><path class="animable" id="elx6pup6euzj" style="fill: rgb(109, 40, 217); transform-origin: 367.801px 406.365px;" d="M367.62,407.34a2.9,2.9,0,0,1-1.88-.48,1,1,0,0,1-.33-.89.6.6,0,0,1,.31-.49c.95-.51,4,1.06,4.38,1.24a.19.19,0,0,1,.1.19.17.17,0,0,1-.14.15A12.5,12.5,0,0,1,367.62,407.34Zm-1.38-1.6a.66.66,0,0,0-.34.07.21.21,0,0,0-.12.19.63.63,0,0,0,.21.59c.47.42,1.74.5,3.46.21A10,10,0,0,0,366.24,405.74Z"/><path class="animable" id="elodxbkyv154" style="fill: rgb(109, 40, 217); transform-origin: 368.742px 405.306px;" d="M370,407.07l-.08,0c-.92-.42-2.74-2.08-2.6-3,0-.21.18-.47.69-.52a1.29,1.29,0,0,1,1,.32c1,.81,1.16,2.89,1.16,3a.16.16,0,0,1-.07.16A.17.17,0,0,1,370,407.07Zm-1.84-3.14h-.11c-.34,0-.36.16-.37.21-.08.52,1.15,1.84,2.09,2.41a4.15,4.15,0,0,0-1-2.39A1,1,0,0,0,368.18,403.93Z"/><path class="animable" id="eluxw74qufxuh" style="fill: rgb(229, 138, 123); transform-origin: 389.63px 214.435px;" d="M393,216.91l-2.6-7.95-4.14,6.69s2.44,4.33,5.66,4.26Z"/><polygon class="animable" id="elqx8oxfow5f" style="fill: rgb(229, 138, 123); transform-origin: 386.09px 210.495px;" points="384.97 205.34 381.81 211.13 386.23 215.65 390.37 208.96 384.97 205.34"/><path class="animable" id="elj0rpbpnsxn" style="fill: rgb(38, 50, 56); transform-origin: 374.365px 159.675px;" d="M375.14,159.57l-1.55-.14S374.57,160.43,375.14,159.57Z"/><path class="animable" id="elekzpo4t8sfj" style="fill: rgb(38, 50, 56); transform-origin: 380.853px 232.357px;" d="M396.87,230.82l.81,2.82c.11.21-.15.44-.52.44H364.82c-.29,0-.52-.14-.54-.32L364,231c0-.2.22-.36.53-.36h31.83A.57.57,0,0,1,396.87,230.82Z"/><path class="animable" id="elah83j7iy7vs" style="fill: rgb(109, 40, 217); transform-origin: 392.805px 232.36px;" d="M392.6,234.38h.85c.17,0,.3-.09.29-.19l-.4-3.66c0-.11-.16-.19-.33-.19h-.85c-.17,0-.3.08-.29.19l.4,3.66C392.28,234.29,392.43,234.38,392.6,234.38Z"/><g id="eleale1xhyulc"><path class="animable" style="fill: rgb(250, 250, 250); opacity: 0.6; transform-origin: 392.805px 232.36px;" d="M392.6,234.38h.85c.17,0,.3-.09.29-.19l-.4-3.66c0-.11-.16-.19-.33-.19h-.85c-.17,0-.3.08-.29.19l.4,3.66C392.28,234.29,392.43,234.38,392.6,234.38Z"/></g><path class="animable" id="el0s2k2czjwz0p" style="fill: rgb(109, 40, 217); transform-origin: 367.415px 232.36px;" d="M367.21,234.38h.85c.17,0,.3-.09.29-.19l-.4-3.66c0-.11-.16-.19-.33-.19h-.85c-.17,0-.3.08-.29.19l.4,3.66C366.89,234.29,367,234.38,367.21,234.38Z"/><g id="elbc9km0vpr9p"><path class="animable" style="fill: rgb(250, 250, 250); opacity: 0.6; transform-origin: 367.415px 232.36px;" d="M367.21,234.38h.85c.17,0,.3-.09.29-.19l-.4-3.66c0-.11-.16-.19-.33-.19h-.85c-.17,0-.3.08-.29.19l.4,3.66C366.89,234.29,367,234.38,367.21,234.38Z"/></g><path class="animable" id="eludco335cmj" style="fill: rgb(109, 40, 217); transform-origin: 380.106px 232.361px;" d="M379.9,234.38h.86c.17,0,.3-.09.28-.19l-.4-3.66c0-.11-.16-.19-.33-.19h-.85c-.17,0-.3.08-.29.19l.4,3.66A.32.32,0,0,0,379.9,234.38Z"/><g id="elqusbtp2o3q"><path class="animable" style="fill: rgb(250, 250, 250); opacity: 0.6; transform-origin: 380.106px 232.361px;" d="M379.9,234.38h.86c.17,0,.3-.09.28-.19l-.4-3.66c0-.11-.16-.19-.33-.19h-.85c-.17,0-.3.08-.29.19l.4,3.66A.32.32,0,0,0,379.9,234.38Z"/></g><path class="animable" id="el3xa60859yg7" style="fill: rgb(109, 40, 217); transform-origin: 303.925px 291.12px;" d="M279.6,416.24h66.15a11.07,11.07,0,0,0,11.16-12L341.09,178a13.11,13.11,0,0,0-12.84-12H262.1a11.07,11.07,0,0,0-11.16,12l15.82,226.25A13.11,13.11,0,0,0,279.6,416.24Z"/><g id="elu2atpubmk3"><path class="animable" style="opacity: 0.2; transform-origin: 303.925px 291.12px;" d="M279.6,416.24h66.15a11.07,11.07,0,0,0,11.16-12L341.09,178a13.11,13.11,0,0,0-12.84-12H262.1a11.07,11.07,0,0,0-11.16,12l15.82,226.25A13.11,13.11,0,0,0,279.6,416.24Z"/></g><g id="elabbw38im3js"><rect class="animable" style="fill: rgb(109, 40, 217); transform-origin: 244.7px 255.68px; transform: rotate(-4deg);" height="15.8" width="1" y="247.78" x="244.2"/></g><g id="elua04y5nm9bm"><rect class="animable" style="opacity: 0.5; transform-origin: 244.7px 255.68px; transform: rotate(-4deg);" height="15.8" width="1" y="247.78" x="244.2"/></g><path class="animable" id="elxr4igw4idld" style="fill: rgb(109, 40, 217); transform-origin: 295.26px 291.12px;" d="M270.94,416.24h66.14a11.07,11.07,0,0,0,11.16-12L332.42,178a13.11,13.11,0,0,0-12.84-12H253.44a11.07,11.07,0,0,0-11.16,12L258.1,404.24A13.11,13.11,0,0,0,270.94,416.24Z"/><g id="elf3o9ka1gabc"><path class="animable" style="opacity: 0.5; transform-origin: 295.26px 291.12px;" d="M270.94,416.24h66.14a11.07,11.07,0,0,0,11.16-12L332.42,178a13.11,13.11,0,0,0-12.84-12H253.44a11.07,11.07,0,0,0-11.16,12L258.1,404.24A13.11,13.11,0,0,0,270.94,416.24Z"/></g><path class="animable" id="elb7tvutiodto" style="fill: rgb(109, 40, 217); transform-origin: 287.735px 214.89px;" d="M283.22,238.06h12.24a2,2,0,0,0,2.07-2.22l-2.93-41.9a2.42,2.42,0,0,0-2.38-2.22H280a2,2,0,0,0-2.06,2.22l2.93,41.9A2.42,2.42,0,0,0,283.22,238.06Z"/><g id="el7neusjxqquy"><path class="animable" style="opacity: 0.2; transform-origin: 287.735px 214.89px;" d="M283.22,238.06h12.24a2,2,0,0,0,2.07-2.22l-2.93-41.9a2.42,2.42,0,0,0-2.38-2.22H280a2,2,0,0,0-2.06,2.22l2.93,41.9A2.42,2.42,0,0,0,283.22,238.06Z"/></g></g><g style="transform-origin: 159.148px 289.281px;" class="animable" id="freepik--character--inject-1"><path class="animable" id="elxhywbg9rwc" style="fill: rgb(109, 40, 217); transform-origin: 183.925px 291.12px;" d="M208.25,416.24H142.1a11.07,11.07,0,0,1-11.16-12L146.76,178a13.12,13.12,0,0,1,12.84-12h66.15a11.07,11.07,0,0,1,11.16,12L221.09,404.24A13.11,13.11,0,0,1,208.25,416.24Z"/><g id="elktgirjhrg4n"><path class="animable" style="opacity: 0.5; transform-origin: 183.925px 291.12px;" d="M208.25,416.24H142.1a11.07,11.07,0,0,1-11.16-12L146.76,178a13.12,13.12,0,0,1,12.84-12h66.15a11.07,11.07,0,0,1,11.16,12L221.09,404.24A13.11,13.11,0,0,1,208.25,416.24Z"/></g><rect class="animable" id="el9zdik1izxl5" style="fill: rgb(109, 40, 217); transform-origin: 178.565px 162.99px;" height="1" width="3.73" y="162.49" x="176.7"/><g id="el3mnoy1c6q3i"><rect class="animable" style="opacity: 0.3; transform-origin: 178.565px 162.99px;" height="1" width="3.73" y="162.49" x="176.7"/></g><rect class="animable" id="eln555tqejg" style="fill: rgb(109, 40, 217); transform-origin: 164.145px 162.99px;" height="1" width="11.73" y="162.49" x="158.28"/><g id="el6hajq4z95c8"><rect class="animable" style="opacity: 0.3; transform-origin: 164.145px 162.99px;" height="1" width="11.73" y="162.49" x="158.28"/></g><path class="animable" id="elfpuzppe3kp7" style="fill: rgb(109, 40, 217); transform-origin: 175.26px 291.12px;" d="M199.58,416.24H133.44a11.07,11.07,0,0,1-11.16-12L138.1,178a13.11,13.11,0,0,1,12.84-12h66.14a11.07,11.07,0,0,1,11.16,12L212.42,404.24A13.11,13.11,0,0,1,199.58,416.24Z"/><g id="el2iz6na9mi9t"><path class="animable" style="opacity: 0.3; transform-origin: 175.26px 291.12px;" d="M199.58,416.24H133.44a11.07,11.07,0,0,1-11.16-12L138.1,178a13.11,13.11,0,0,1,12.84-12h66.14a11.07,11.07,0,0,1,11.16,12L212.42,404.24A13.11,13.11,0,0,1,199.58,416.24Z"/></g><path class="animable" id="elib4mgox9bvl" style="fill: rgb(109, 40, 217); transform-origin: 173.665px 291.5px;" d="M209.5,403.22H122.41a1.53,1.53,0,0,1-1.52-1.63L136.3,181.2a1.53,1.53,0,0,1,1.53-1.42h87.08a1.53,1.53,0,0,1,1.53,1.63L211,401.8A1.52,1.52,0,0,1,209.5,403.22Z"/><g id="el5gyiubc9o04"><path class="animable" style="fill: rgb(250, 250, 250); opacity: 0.9; transform-origin: 173.665px 291.5px;" d="M209.5,403.22H122.41a1.53,1.53,0,0,1-1.52-1.63L136.3,181.2a1.53,1.53,0,0,1,1.53-1.42h87.08a1.53,1.53,0,0,1,1.53,1.63L211,401.8A1.52,1.52,0,0,1,209.5,403.22Z"/></g><path class="animable" id="el3gmgpor9zve" style="fill: rgb(109, 40, 217); transform-origin: 175.775px 253.205px;" d="M207.38,202.34H150.85a6.21,6.21,0,0,0-6.08,5.68l-5.89,84.2a5.24,5.24,0,0,0,5.29,5.68h3.92l-2,6.17A17.72,17.72,0,0,0,158,297.9H200.7a6.21,6.21,0,0,0,6.08-5.68l5.89-84.2A5.25,5.25,0,0,0,207.38,202.34Z"/><g id="el8lkzbtw1kq"><path class="animable" style="fill: rgb(250, 250, 250); opacity: 0.6; transform-origin: 175.775px 253.205px;" d="M207.38,202.34H150.85a6.21,6.21,0,0,0-6.08,5.68l-5.89,84.2a5.24,5.24,0,0,0,5.29,5.68h3.92l-2,6.17A17.72,17.72,0,0,0,158,297.9H200.7a6.21,6.21,0,0,0,6.08-5.68l5.89-84.2A5.25,5.25,0,0,0,207.38,202.34Z"/></g><path class="animable" id="elhlw01j8dqgm" style="fill: rgb(109, 40, 217); transform-origin: 169.595px 341.7px;" d="M143,314.85h56.53a5.24,5.24,0,0,1,5.29,5.68l-2.53,36.17a6.21,6.21,0,0,1-6.08,5.68h-3.93l1.1,6.17a15.2,15.2,0,0,1-11-6.17H139.66a5.24,5.24,0,0,1-5.29-5.68l2.53-36.17A6.21,6.21,0,0,1,143,314.85Z"/><g id="elydh8756w96i"><path class="animable" style="fill: rgb(250, 250, 250); opacity: 0.6; transform-origin: 169.595px 341.7px;" d="M143,314.85h56.53a5.24,5.24,0,0,1,5.29,5.68l-2.53,36.17a6.21,6.21,0,0,1-6.08,5.68h-3.93l1.1,6.17a15.2,15.2,0,0,1-11-6.17H139.66a5.24,5.24,0,0,1-5.29-5.68l2.53-36.17A6.21,6.21,0,0,1,143,314.85Z"/></g><path class="animable" id="elnkofkodqe4b" style="fill: rgb(109, 40, 217); transform-origin: 192.17px 172.33px;" d="M194.05,172.33a2.05,2.05,0,0,1-2,1.89,1.74,1.74,0,0,1-1.76-1.89,2.07,2.07,0,0,1,2-1.89A1.74,1.74,0,0,1,194.05,172.33Z"/><g id="eljzatzum86rm"><path class="animable" style="opacity: 0.5; transform-origin: 192.17px 172.33px;" d="M194.05,172.33a2.05,2.05,0,0,1-2,1.89,1.74,1.74,0,0,1-1.76-1.89,2.07,2.07,0,0,1,2-1.89A1.74,1.74,0,0,1,194.05,172.33Z"/></g><path class="animable" id="els8fiisnz65" style="fill: rgb(109, 40, 217); transform-origin: 177.835px 172.33px;" d="M184.31,174.22H171.12a1.75,1.75,0,0,1-1.76-1.89h0a2.06,2.06,0,0,1,2-1.89h13.19a1.75,1.75,0,0,1,1.76,1.89h0A2.06,2.06,0,0,1,184.31,174.22Z"/><g id="el8xz04pkoqiu"><path class="animable" style="opacity: 0.5; transform-origin: 177.835px 172.33px;" d="M184.31,174.22H171.12a1.75,1.75,0,0,1-1.76-1.89h0a2.06,2.06,0,0,1,2-1.89h13.19a1.75,1.75,0,0,1,1.76,1.89h0A2.06,2.06,0,0,1,184.31,174.22Z"/></g><path class="animable" id="elch3ut5tbbvj" style="fill: rgb(229, 138, 123); transform-origin: 128.39px 237.117px;" d="M113.89,217.67l1.57,3.07c.55,1,1.11,2.09,1.69,3.12,1.16,2.07,2.34,4.12,3.58,6.11a77.22,77.22,0,0,0,8.1,11.06c.75.75,1.56,1.65,2.08,2.06a16.1,16.1,0,0,0,2.32,1.56,41.21,41.21,0,0,0,6.06,2.6A123.28,123.28,0,0,0,153,250.94l-.32,5.51a66.84,66.84,0,0,1-15.57-.91,40.53,40.53,0,0,1-8-2.25,22.48,22.48,0,0,1-4.1-2.15,17,17,0,0,1-1.9-1.47l-1.58-1.39A71,71,0,0,1,111.43,236c-1.45-2.17-2.82-4.37-4.07-6.63-.63-1.13-1.25-2.27-1.84-3.42s-1.15-2.27-1.74-3.57Z"/><path class="animable" id="elkuhq7ezq1s8" style="fill: rgb(229, 138, 123); transform-origin: 154.365px 252.573px;" d="M151,250.94l4.45-3.14,2.35,9.08s-3.92,1.38-6.87-.61Z"/><polygon class="animable" id="elk31zk8lbdpj" style="fill: rgb(229, 138, 123); transform-origin: 159.305px 251.31px;" points="161.59 245.74 163.17 253.34 157.79 256.88 155.44 247.8 161.59 245.74"/><path class="animable" id="el47i89lkomir" style="fill: rgb(109, 40, 217); transform-origin: 180.666px 245.276px;" d="M189.86,237.69l-1.21-.22a8.26,8.26,0,0,0-3.79.23l-3.49,1.06a21,21,0,0,0,1.92-11.86c-.42-3.06-2.72-2.36-2.72-2.36s-3.37,12.72-10.37,17.6L168,243.67l3.14,22.41,2.59-.24h0c1,0,6.69,0,10.36,0a7.2,7.2,0,0,0,5.5-2.94,15.25,15.25,0,0,0,3.07-8.56l.66-10.43C193.48,240.83,192,238.06,189.86,237.69Z"/><g id="elpo0qp2ttfx"><path class="animable" style="fill: rgb(250, 250, 250); opacity: 0.9; transform-origin: 180.666px 245.276px;" d="M189.86,237.69l-1.21-.22a8.26,8.26,0,0,0-3.79.23l-3.49,1.06a21,21,0,0,0,1.92-11.86c-.42-3.06-2.72-2.36-2.72-2.36s-3.37,12.72-10.37,17.6L168,243.67l3.14,22.41,2.59-.24h0c1,0,6.69,0,10.36,0a7.2,7.2,0,0,0,5.5-2.94,15.25,15.25,0,0,0,3.07-8.56l.66-10.43C193.48,240.83,192,238.06,189.86,237.69Z"/></g><path class="animable" id="elwjbfeo4xat" style="fill: rgb(109, 40, 217); transform-origin: 164.855px 255.32px;" d="M161.42,271.28l9.86-2.15c.77-.16,1.31-1.22,1.19-2.35l-2.57-25.67c-.12-1.13-.84-1.91-1.61-1.75l-9.86,2.15c-.77.16-1.31,1.22-1.19,2.35l2.57,25.67C159.93,270.66,160.65,271.44,161.42,271.28Z"/><path class="animable" id="eln15az6nmoz8" style="fill: rgb(38, 50, 56); transform-origin: 143.11px 186.8px;" d="M142.42,186.66c-.12.58.09,1.11.47,1.19s.79-.32.91-.9-.09-1.12-.47-1.2S142.54,186.08,142.42,186.66Z"/><path class="animable" id="elmnjqw15p4p8" style="fill: rgb(223, 87, 83); transform-origin: 142.755px 190.676px;" d="M142.46,187.76a21.35,21.35,0,0,0,1.73,5.54,3.37,3.37,0,0,1-2.87-.06Z"/><path class="animable" id="elyrxtzk8smya" style="fill: rgb(38, 50, 56); transform-origin: 142.578px 182.568px;" d="M144,183.11a.35.35,0,0,1-.19-.06,2.76,2.76,0,0,0-2.51-.06.35.35,0,0,1-.46-.17.34.34,0,0,1,.18-.46,3.44,3.44,0,0,1,3.17.11.34.34,0,0,1,.1.48A.34.34,0,0,1,144,183.11Z"/><path class="animable" id="el2fl835p2ypo" style="fill: rgb(229, 138, 123); transform-origin: 129.284px 200.65px;" d="M121.84,188.52c1,5.37,2.1,15.22-1.66,18.8,0,0,1.47,5.46,11.46,5.46,11,0,5.24-5.46,5.24-5.46-6-1.43-5.83-5.87-4.79-10Z"/><path class="animable" id="eli16u7w7n8e" style="fill: rgb(109, 40, 217); transform-origin: 128.14px 206.833px;" d="M118.66,208.86c-.72-1.76-.6-5-.07-5.05,2.08-.14,13.18-.17,16.85,1.24a3.84,3.84,0,0,1,2.49,4.87Z"/><path class="animable" id="elwltzx1wx5bl" style="fill: rgb(109, 40, 217); transform-origin: 94.0511px 409.136px;" d="M94.13,410a9.34,9.34,0,0,1-1.92-.21.16.16,0,0,1-.13-.13.2.2,0,0,1,.07-.18c.09-.06,2.12-1.44,3.19-1.2a.83.83,0,0,1,.55.41.71.71,0,0,1,0,.83A2.35,2.35,0,0,1,94.13,410Zm-1.43-.46c1.1.18,2.6.18,2.92-.24,0,0,.12-.16,0-.44a.47.47,0,0,0-.32-.24A4.72,4.72,0,0,0,92.7,409.56Z"/><path class="animable" id="elfpt0nsufe2h" style="fill: rgb(109, 40, 217); transform-origin: 93.2347px 408.177px;" d="M92.25,409.82l-.09,0a.16.16,0,0,1-.08-.16c0-.09.18-2.21,1-2.91a1,1,0,0,1,.75-.22.57.57,0,0,1,.55.46c.15.82-1.32,2.42-2.07,2.84Zm1.48-3a.6.6,0,0,0-.39.15,4.08,4.08,0,0,0-.87,2.3c.75-.57,1.69-1.78,1.6-2.27,0,0,0-.15-.26-.18Z"/><polygon class="animable" id="el44zqpc4rpqw" style="fill: rgb(229, 138, 123); transform-origin: 90.83px 401.135px;" points="83.77 409.64 91.12 409.64 97.89 392.63 90.55 392.63 83.77 409.64"/><path class="animable" id="el5y4tvijtn8s" style="fill: rgb(38, 50, 56); transform-origin: 92.2596px 412.97px;" d="M91.7,408.79H83.45a.65.65,0,0,0-.63.51l-1.45,6.53a1.08,1.08,0,0,0,1.08,1.3c2.88-.05,4.28-.22,7.91-.22,2.23,0,6.83.24,9.92.24s3.48-3,2.22-3.33c-5.66-1.24-7.79-2.95-9.6-4.57A1.78,1.78,0,0,0,91.7,408.79Z"/><path class="animable" id="elndj90b3m5fq" style="fill: rgb(229, 138, 123); transform-origin: 162.28px 236.094px;" d="M151.51,214.47c2.19,4,4.35,8.1,6.48,12.16l6.38,12.19,1.6,3a13.71,13.71,0,0,0,1.2,2.08,14.22,14.22,0,0,0,4,3.33,55.6,55.6,0,0,0,11.7,5l-.62,5.48a35.45,35.45,0,0,1-3.76-.12,36,36,0,0,1-3.71-.43,35.05,35.05,0,0,1-7.43-2,21.83,21.83,0,0,1-7.34-4.59,19.6,19.6,0,0,1-2.75-3.6l-1.88-3q-3.69-6-7.11-12.06c-2.27-4.07-4.47-8.15-6.58-12.32Z"/><path class="animable" id="elrvug7hiuxyq" style="fill: rgb(109, 40, 217); transform-origin: 112.734px 224.47px;" d="M101.54,213.41c-3,6.41,6.59,26.65,6.59,26.65l16.38-7.6a117.3,117.3,0,0,0-6.66-16.74C113.57,207.23,104.58,206.86,101.54,213.41Z"/><g id="elcj6m5i9okqu"><path class="animable" style="fill: rgb(250, 250, 250); opacity: 0.8; transform-origin: 112.734px 224.47px;" d="M101.54,213.41c-3,6.41,6.59,26.65,6.59,26.65l16.38-7.6a117.3,117.3,0,0,0-6.66-16.74C113.57,207.23,104.58,206.86,101.54,213.41Z"/></g><path class="animable" id="elox44dgn02gd" style="fill: rgb(109, 40, 217); transform-origin: 115.57px 227.39px;" d="M110.33,214.72l-3.7,21.95c.88,2.07,1.5,3.39,1.5,3.39l16.38-7.6S117.11,219.67,110.33,214.72Z"/><g id="elakhvb5e4uku"><path class="animable" style="fill: rgb(250, 250, 250); opacity: 0.7; transform-origin: 115.57px 227.39px;" d="M110.33,214.72l-3.7,21.95c.88,2.07,1.5,3.39,1.5,3.39l16.38-7.6S117.11,219.67,110.33,214.72Z"/></g><path class="animable" id="elhnu74nwengq" style="fill: rgb(109, 40, 217); transform-origin: 129.41px 239.97px;" d="M148.18,209.36s7.82,8.84.44,63.5H109.33c-.28-6,3.51-35.45-2.3-63.88a102.56,102.56,0,0,1,13.15-1.66,145.27,145.27,0,0,1,16.7,0A74.93,74.93,0,0,1,148.18,209.36Z"/><g id="elve9fx3ccyn8"><path class="animable" style="fill: rgb(250, 250, 250); opacity: 0.8; transform-origin: 129.41px 239.97px;" d="M148.18,209.36s7.82,8.84.44,63.5H109.33c-.28-6,3.51-35.45-2.3-63.88a102.56,102.56,0,0,1,13.15-1.66,145.27,145.27,0,0,1,16.7,0A74.93,74.93,0,0,1,148.18,209.36Z"/></g><path class="animable" id="eljlofqrewr1" style="fill: rgb(109, 40, 217); transform-origin: 148.54px 234.285px;" d="M151.35,222.37l-6.07,15,6.07,8.83A158,158,0,0,0,151.35,222.37Z"/><g id="el0if5e7fow9lp"><path class="animable" style="fill: rgb(250, 250, 250); opacity: 0.7; transform-origin: 148.54px 234.285px;" d="M151.35,222.37l-6.07,15,6.07,8.83A158,158,0,0,0,151.35,222.37Z"/></g><path class="animable" id="ely1ynv2t3np" style="fill: rgb(109, 40, 217); transform-origin: 150.876px 224.878px;" d="M138.62,214.21c-2.42,6.6,7.3,26.62,7.3,26.62l17.6-8.87a89.92,89.92,0,0,0-8.62-17.13C149.63,207.13,141.28,207,138.62,214.21Z"/><g id="elw0gylplsuoo"><path class="animable" style="fill: rgb(250, 250, 250); opacity: 0.8; transform-origin: 150.876px 224.878px;" d="M138.62,214.21c-2.42,6.6,7.3,26.62,7.3,26.62l17.6-8.87a89.92,89.92,0,0,0-8.62-17.13C149.63,207.13,141.28,207,138.62,214.21Z"/></g><path class="animable" id="elg6e1z1r1og" style="fill: rgb(229, 138, 123); transform-origin: 185.67px 254.297px;" d="M181.41,252.49l7.2-2.88,2,8.68s-5.72,2.07-9.88-.94Z"/><polygon class="animable" id="elsn6x6zpgs4" style="fill: rgb(229, 138, 123); transform-origin: 192.58px 253.95px;" points="196.55 249.7 195.44 257.46 190.6 258.29 188.61 249.61 196.55 249.7"/><polygon class="animable" id="eln5wfrbb5r6g" style="fill: rgb(207, 111, 100); transform-origin: 92.055px 398.75px;" points="90.54 392.64 97.89 392.64 93.02 404.86 86.22 403.48 90.54 392.64"/><path class="animable" id="elk52w1n2st9l" style="fill: rgb(229, 138, 123); transform-origin: 132.853px 187.146px;" d="M123.33,181.4c-1,7.21-2,11.38.81,15.79,4.27,6.63,13.74,5.2,16.92-1.56,2.87-6.08,4.1-16.86-2.28-21.15A10,10,0,0,0,123.33,181.4Z"/><path class="animable" id="elqayzq8jphf" style="fill: rgb(38, 50, 56); transform-origin: 133.947px 178.698px;" d="M151.05,169.28c-6.22-5.75-1.3-7.21-1.3-7.21s-6.82-2.82-4.12,3.22c3.77,8.42-6.79,5.83-11.85,0-3.12-3.6-11.33.09-10.93,3.6s-12.5.79-6.66,8.45c.11,8,3.22,15.78,7.35,17.89,7.08,3.61,12.39-6.49,14.37-14.58C148.59,185.78,157.49,175.23,151.05,169.28Z"/><path class="animable" id="el1qowokjlo57" style="fill: rgb(229, 138, 123); transform-origin: 135.292px 186.99px;" d="M132.51,185.47a8.32,8.32,0,0,0,1.81,5c1.51,1.84,3.23.83,3.63-1.3.36-1.92,0-5.19-1.9-6.26S132.5,183.29,132.51,185.47Z"/><path class="animable" id="elpwyfqoau0l" style="fill: rgb(38, 50, 56); transform-origin: 120.7px 170.496px;" d="M116.26,169.85a13.52,13.52,0,0,1,8.88,2.89S123.33,165,116.26,169.85Z"/><path class="animable" id="elkjg8wna8g8e" style="fill: rgb(109, 40, 217); transform-origin: 112.111px 336.735px;" d="M131.41,272.86s1.47,29.76,6.9,56c1.73,8.31.6,17.21-4.27,24.16-14.31,20.41-37,47.59-37,47.59l-11.89-1.33s19.25-35.69,29.11-53.42c2.24-4,4.22-7.66,2.53-12-16.33-41.45-7.5-61-7.5-61Z"/><g id="elpoomyk9145"><path class="animable" style="opacity: 0.3; transform-origin: 112.111px 336.735px;" d="M131.41,272.86s1.47,29.76,6.9,56c1.73,8.31.6,17.21-4.27,24.16-14.31,20.41-37,47.59-37,47.59l-11.89-1.33s19.25-35.69,29.11-53.42c2.24-4,4.22-7.66,2.53-12-16.33-41.45-7.5-61-7.5-61Z"/></g><path class="animable" id="elg7wvla9ix7" style="fill: rgb(109, 40, 217); transform-origin: 130.158px 306.435px;" d="M133.62,298.58,122.24,285c-.43,6.09,3.25,28.87,15.87,42.87C136.1,318,134.65,307.59,133.62,298.58Z"/><g id="eljm6ji9dvwf"><path class="animable" style="opacity: 0.4; transform-origin: 130.158px 306.435px;" d="M133.62,298.58,122.24,285c-.43,6.09,3.25,28.87,15.87,42.87C136.1,318,134.65,307.59,133.62,298.58Z"/></g><polygon class="animable" id="el9ia79si9tu8" style="fill: rgb(109, 40, 217); transform-origin: 92.06px 399.545px;" points="100.39 398.8 98.06 403.62 83.73 399.94 84.87 395.47 100.39 398.8"/><g id="elx1ih66t94u"><polygon class="animable" style="opacity: 0.1; transform-origin: 92.06px 399.545px;" points="100.39 398.8 98.06 403.62 83.73 399.94 84.87 395.47 100.39 398.8"/></g><polygon class="animable" id="elo6xsohi9vy" style="fill: rgb(229, 138, 123); transform-origin: 147.835px 401.135px;" points="143.09 409.64 150.43 409.64 152.58 392.63 145.24 392.63 143.09 409.64"/><path class="animable" id="ele1az1phywst" style="fill: rgb(109, 40, 217); transform-origin: 153.579px 409.116px;" d="M153.65,410a12.3,12.3,0,0,1-2.26-.21.17.17,0,0,1-.14-.14.17.17,0,0,1,.09-.18c.11-.06,2.67-1.52,3.9-1.19a.86.86,0,0,1,.55.41.66.66,0,0,1,0,.76C155.5,409.89,154.59,410,153.65,410Zm-1.7-.46c1.38.19,3.24.16,3.57-.3,0-.06.09-.16,0-.38a.51.51,0,0,0-.34-.24C154.39,408.43,152.85,409.1,152,409.56Z"/><path class="animable" id="elp3a9geis7p" style="fill: rgb(109, 40, 217); transform-origin: 152.644px 408.174px;" d="M151.42,409.82a.19.19,0,0,1-.1,0,.2.2,0,0,1-.07-.16c0-.09.21-2.07,1.14-2.83a1.25,1.25,0,0,1,1-.3c.48.05.61.29.64.49.14.83-1.62,2.42-2.5,2.81Zm1.8-3a.91.91,0,0,0-.61.23,4.12,4.12,0,0,0-1,2.26c.91-.54,2.1-1.79,2-2.29,0,0,0-.16-.34-.2Z"/><path class="animable" id="el792lld0cxk9" style="fill: rgb(38, 50, 56); transform-origin: 154.469px 412.97px;" d="M150.64,408.79h-8a.63.63,0,0,0-.62.51l-1.46,6.53a1.07,1.07,0,0,0,1.06,1.3c2.9-.05,7.08-.22,10.71-.22,4.26,0,7.93.24,12.92.24,3,0,3.85-3,2.59-3.33-5.75-1.26-10.44-1.39-15.41-4.45A3.33,3.33,0,0,0,150.64,408.79Z"/><polygon class="animable" id="elb8j1vf7s7s" style="fill: rgb(207, 111, 100); transform-origin: 148.2px 398.835px;" points="145.24 392.64 152.59 392.64 151.01 405.03 143.81 403.92 145.24 392.64"/><path class="animable" id="elcjkb3ctjlvm" style="fill: rgb(109, 40, 217); transform-origin: 144.636px 336.735px;" d="M148.62,272.86s6.15,20.56,16.31,47c3.31,8.6,4.59,16.88,2.29,24.16-7.13,22.6-13.29,56.59-13.29,56.59l-12.25-1.33s-.47-34.67,3.87-52.54c2.23-9.17,1.47-12.51-.82-15.54-31.2-41.51-22.82-58.31-22.82-58.31Z"/><g id="eln83jw16gxp"><path class="animable" style="opacity: 0.3; transform-origin: 144.636px 336.735px;" d="M148.62,272.86s6.15,20.56,16.31,47c3.31,8.6,4.59,16.88,2.29,24.16-7.13,22.6-13.29,56.59-13.29,56.59l-12.25-1.33s-.47-34.67,3.87-52.54c2.23-9.17,1.47-12.51-.82-15.54-31.2-41.51-22.82-58.31-22.82-58.31Z"/></g><polygon class="animable" id="el9j1yeh57s4t" style="fill: rgb(109, 40, 217); transform-origin: 148.285px 399.955px;" points="156.05 398.53 155.41 403.41 140.95 400.96 140.52 396.5 156.05 398.53"/><g id="el9y2iq5e4ta"><polygon class="animable" style="opacity: 0.1; transform-origin: 148.285px 399.955px;" points="156.05 398.53 155.41 403.41 140.95 400.96 140.52 396.5 156.05 398.53"/></g></g><g style="transform-origin: 239.37px 107.42px;" class="animable animator-active" id="freepik--speech-bubbles--inject-1"><rect class="animable" id="elqvhlcnavw9" style="fill: rgb(109, 40, 217); transform-origin: 256.08px 149.24px;" height="1" width="12.5" y="148.74" x="249.83"/><g id="elw9ipg5kfffm"><rect class="animable" style="opacity: 0.2; transform-origin: 256.08px 149.24px;" height="1" width="12.5" y="148.74" x="249.83"/></g><path class="animable" id="ely2roxni4apq" style="fill: rgb(109, 40, 217); transform-origin: 259.705px 130.555px;" d="M225.84,107.48h67.73a6.82,6.82,0,0,1,6.81,6.81v25.14a6.82,6.82,0,0,1-6.81,6.81h-4.7l1.83,7.39a19.65,19.65,0,0,1-13.64-7.39H225.84a6.83,6.83,0,0,1-6.81-6.81V114.29A6.83,6.83,0,0,1,225.84,107.48Z"/><g id="elp1oa4rd1v3g"><path class="animable" style="opacity: 0.2; transform-origin: 259.705px 130.555px;" d="M225.84,107.48h67.73a6.82,6.82,0,0,1,6.81,6.81v25.14a6.82,6.82,0,0,1-6.81,6.81h-4.7l1.83,7.39a19.65,19.65,0,0,1-13.64-7.39H225.84a6.83,6.83,0,0,1-6.81-6.81V114.29A6.83,6.83,0,0,1,225.84,107.48Z"/></g><rect class="animable" id="elsze6vbnknv" style="fill: rgb(109, 40, 217); transform-origin: 262.71px 76.335px;" height="8.33" width="1" y="72.17" x="262.21"/><g id="eloij66qm7ty"><rect class="animable" style="fill: rgb(250, 250, 250); opacity: 0.1; transform-origin: 262.71px 76.335px;" height="8.33" width="1" y="72.17" x="262.21"/></g><path class="animable" id="elok5ejrhjb5f" style="fill: rgb(109, 40, 217); transform-origin: 219.035px 84.285px;" d="M252.9,61.21H185.17A6.82,6.82,0,0,0,178.36,68V93.16a6.82,6.82,0,0,0,6.81,6.81h4.7L188,107.36A19.65,19.65,0,0,0,201.68,100H252.9a6.83,6.83,0,0,0,6.81-6.81V68A6.83,6.83,0,0,0,252.9,61.21Z"/><g id="elnegfdeqc4kb"><path class="animable" style="fill: rgb(250, 250, 250); opacity: 0.1; transform-origin: 219.035px 84.285px;" d="M252.9,61.21H185.17A6.82,6.82,0,0,0,178.36,68V93.16a6.82,6.82,0,0,0,6.81,6.81h4.7L188,107.36A19.65,19.65,0,0,0,201.68,100H252.9a6.83,6.83,0,0,0,6.81-6.81V68A6.83,6.83,0,0,0,252.9,61.21Z"/></g></g><defs>     <filter height="200%" id="active">         <feMorphology radius="2" operator="dilate" result="DILATED" in="SourceAlpha"/>                <feFlood result="PINK" flood-opacity="1" flood-color="#32DFEC"/>        <feComposite result="OUTLINE" operator="in" in2="DILATED" in="PINK"/>        <feMerge>            <feMergeNode in="OUTLINE"/>            <feMergeNode in="SourceGraphic"/>        </feMerge>    </filter>    <filter height="200%" id="hover">        <feMorphology radius="2" operator="dilate" result="DILATED" in="SourceAlpha"/>                <feFlood result="PINK" flood-opacity="0.5" flood-color="#ff0000"/>        <feComposite result="OUTLINE" operator="in" in2="DILATED" in="PINK"/>        <feMerge>            <feMergeNode in="OUTLINE"/>            <feMergeNode in="SourceGraphic"/>        </feMerge>            <feColorMatrix values="0   0   0   0   0                0   1   0   0   0                0   0   0   0   0                0   0   0   1   0" type="matrix"/>    </filter></defs></svg>